<?xml version="1.0" standalone="no"?><!DOCTYPE svg PUBLIC "-//W3C//DTD SVG 1.1//EN" "http://www.w3.org/Graphics/SVG/1.1/DTD/svg11.dtd"><svg t="1537426220219" class="icon" style="" viewBox="0 0 1024 1024" version="1.1" xmlns="http://www.w3.org/2000/svg" p-id="1621" xmlns:xlink="http://www.w3.org/1999/xlink" width="200" height="200"><defs><style type="text/css"></style></defs><path d="M126.72 438.187c30.613 0 55.36-24.747 55.36-55.253v-147.2c0-30.507 24.747-55.253 55.253-55.253h147.093c30.507 0 55.253-24.533 55.253-55.36 0-30.613-25.28-55.36-55.147-55.36h-202.667c-61.013 0-110.507 49.707-110.507 110.507v202.667c0 30.507 24.533 55.253 55.36 55.253zM790.187 180.48c30.507 0 55.253 24.747 55.253 55.253v147.093c0 30.507 24.533 55.253 55.36 55.253 30.613 0 55.36-25.28 55.36-55.147v-202.667c0-61.013-49.707-110.507-110.507-110.507h-202.773c-30.507 0-55.147 24.533-55.147 55.36 0 30.613 24.747 55.36 55.253 55.36h147.2zM845.44 788.587c0 30.507-24.747 55.253-55.253 55.253h-147.093c-30.507 0-55.253 24.533-55.253 55.36 0 30.613 25.28 55.36 55.147 55.36h202.773c61.013 0 110.507-49.707 110.507-110.507v-202.773c0-30.507-24.533-55.147-55.36-55.147-30.613 0-55.36 24.747-55.36 55.253v147.2zM384.64 954.56c30.507 0 55.147-24.533 55.147-55.36 0-30.613-24.747-55.36-55.253-55.36h-147.2c-30.507 0-55.253-24.747-55.253-55.253v-147.2c0-30.507-24.533-55.253-55.36-55.253-30.613 0-55.36 25.28-55.36 55.147v202.773c0 61.013 49.707 110.507 110.507 110.507h202.773z" p-id="1622"></path></svg>